<svg width="133" height="134" viewBox="0 0 133 134" fill="none" xmlns="http://www.w3.org/2000/svg">
<path d="M101.298 54.3692C100.992 56.478 99.6015 59.343 98.0063 61.8339C95.9935 64.9768 92.7994 67.1782 89.1439 67.9426L73.0412 71.3098C70.4531 71.851 68.1063 73.2055 66.3442 75.1751L55.7859 86.977C53.8016 89.1951 52.4147 88.6661 52.4147 85.6912C52.3907 85.8015 47.1746 99.2533 60.9979 107.227C66.3092 110.29 73.9548 109.189 79.2661 106.126L107.408 89.8933C117.933 83.8227 125.364 73.553 127.834 61.6651C127.931 61.1949 128.007 60.7229 128.088 60.2513L101.298 54.3692Z" fill="url(#paint0_linear_801_763)"/>
<path d="M93.9998 38.1546C99.3111 41.2182 101.481 45.7792 101.481 51.9064C101.481 52.7381 101.416 53.56 101.298 54.3692L112.638 59.2401L128.088 60.2513C130.067 48.8012 126.19 37.0155 119.239 27.6474C114.008 20.5975 107.277 14.4795 99.1857 9.81213C92.6126 6.02071 85.7819 3.52268 78.919 2.15198L71.2082 12.1375L68.7725 23.6034L93.9998 38.1546Z" fill="url(#paint1_linear_801_763)"/>
<path d="M3.23728 46.5573C3.2344 46.5663 3.24239 46.5689 3.24539 46.5599C3.8404 44.7753 4.5865 42.7843 5.51795 40.6572C10.3835 29.5465 19.7596 22.1362 31.2946 18.3579C42.8295 14.5797 55.4241 15.904 65.9368 21.9678L68.7725 23.6034L78.919 2.152C46.6468 -4.29363 13.6635 14.6663 3.27831 46.433C3.27335 46.4482 3.2553 46.5012 3.23728 46.5573Z" fill="url(#paint2_linear_801_763)"/>
<path d="M78.1643 106.126C72.853 109.189 66.3092 109.189 60.9979 106.126C60.2769 105.71 59.5972 105.242 58.9545 104.736L49.6134 111.158L41.5623 124.168C50.4986 131.605 62.1027 133.996 73.6987 132.666C82.4253 131.665 91.094 128.901 99.1858 124.234C105.759 120.442 111.34 115.781 115.959 110.529L111.159 98.8646L103.392 91.5745L78.1643 106.126Z" fill="url(#paint3_linear_801_763)"/>
<path d="M58.9545 104.736C54.8624 101.513 52.4148 96.5687 52.4148 91.2734V90.7452V46.6423C52.4148 44.1482 53.1496 43.7243 55.3117 44.9714C51.9817 43.0507 44.2889 36.4569 34.7906 41.9356C29.4793 44.9992 25.1056 51.7617 25.1056 57.8888V90.3539C25.1056 102.495 31.3941 115.16 40.4641 123.241C40.8229 123.561 41.1943 123.862 41.5624 124.168L58.9545 104.736Z" fill="url(#paint4_linear_801_763)"/>
<path d="M115.308 22.8458C115.301 22.8388 115.295 22.8444 115.301 22.8515C116.551 24.2586 117.904 25.8997 119.282 27.7691C126.48 37.5341 129.17 49.902 126.678 61.7712C124.185 73.6404 116.74 83.8751 106.227 89.9389L103.392 91.5745L115.959 110.529C137.683 85.8294 137.739 47.812 115.395 22.9435C115.384 22.9316 115.347 22.8894 115.308 22.8458Z" fill="url(#paint5_linear_801_763)"/>
<path d="M26.2074 57.8889C26.2073 51.7618 29.4793 46.1 34.7906 43.0364C35.5116 42.6206 36.2567 42.2663 37.0169 41.9633L36.1205 30.6703L29.8226 17.7499C18.908 21.7632 10.0792 30.0573 5.43387 40.7551C1.938 48.8057 4.04541e-05 57.6882 0 67.0229C0 74.6058 1.24993 81.7647 3.49318 88.3879L16.0045 90.0666L26.2074 86.9914V57.8889Z" fill="url(#paint6_linear_801_763)"/>
<path d="M37.0169 41.9632C41.8571 40.0344 47.3666 40.3887 51.9569 43.0364L52.4147 43.3005L89.1646 64.4979C91.7426 65.9849 91.5083 67.4481 88.5946 68.0574L90.7145 67.6141C93.5042 67.0308 96.0528 65.6052 98.0018 63.5277C101.353 59.9558 102.583 55.6463 102.583 51.9063C102.583 45.7792 99.3111 40.1175 93.9998 37.0539L65.8577 20.8214C55.3331 14.7508 42.7153 13.4563 31.1755 17.2633C30.719 17.4138 30.2721 17.5846 29.8226 17.7499L37.0169 41.9632Z" fill="url(#paint7_linear_801_763)"/>
<path d="M79.8266 131.665C79.8359 131.663 79.8341 131.655 79.8249 131.657C77.9803 132.035 75.8814 132.385 73.5718 132.642C61.5078 133.988 49.4419 130.131 40.3992 122.04C31.3566 113.949 26.2074 102.39 26.2074 90.2626L26.2074 86.9914L3.49319 88.3879C14.0419 119.533 46.969 138.59 79.6983 131.692C79.714 131.689 79.769 131.678 79.8266 131.665Z" fill="url(#paint8_linear_801_763)"/>
<defs>
<linearGradient id="paint0_linear_801_763" x1="82.8748" y1="99.1002" x2="95.8782" y2="53.8078" gradientUnits="userSpaceOnUse">
<stop stop-color="#1724C9"/>
<stop offset="1" stop-color="#1C64F2"/>
</linearGradient>
<linearGradient id="paint1_linear_801_763" x1="112.824" y1="43.8658" x2="78.6181" y2="9.78008" gradientUnits="userSpaceOnUse">
<stop stop-color="#1C64F2"/>
<stop offset="1" stop-color="#0092FF"/>
</linearGradient>
<linearGradient id="paint2_linear_801_763" x1="66.7809" y1="21.6426" x2="15.1798" y2="24.9032" gradientUnits="userSpaceOnUse">
<stop stop-color="#0092FF"/>
<stop offset="1" stop-color="#45B2FF"/>
</linearGradient>
<linearGradient id="paint3_linear_801_763" x1="63.2911" y1="119.314" x2="109.632" y2="106.809" gradientUnits="userSpaceOnUse">
<stop stop-color="#1C64F2"/>
<stop offset="1" stop-color="#0092FF"/>
</linearGradient>
<linearGradient id="paint4_linear_801_763" x1="30.0297" y1="65.6891" x2="62.9303" y2="99.781" gradientUnits="userSpaceOnUse">
<stop stop-color="#1724C9"/>
<stop offset="1" stop-color="#1C64F2"/>
</linearGradient>
<linearGradient id="paint5_linear_801_763" x1="105.144" y1="90.2829" x2="128.1" y2="44.0071" gradientUnits="userSpaceOnUse">
<stop stop-color="#0092FF"/>
<stop offset="1" stop-color="#45B2FF"/>
</linearGradient>
<linearGradient id="paint6_linear_801_763" x1="22.16" y1="38.6217" x2="9.87613" y2="84.7918" gradientUnits="userSpaceOnUse">
<stop stop-color="#1C64F2"/>
<stop offset="1" stop-color="#0092FF"/>
</linearGradient>
<linearGradient id="paint7_linear_801_763" x1="84.8705" y1="36.4256" x2="39.9817" y2="47.602" gradientUnits="userSpaceOnUse">
<stop stop-color="#1724C9"/>
<stop offset="1" stop-color="#1C64F2"/>
</linearGradient>
<linearGradient id="paint8_linear_801_763" x1="26.4685" y1="89.1302" x2="55.0812" y2="132.17" gradientUnits="userSpaceOnUse">
<stop stop-color="#0092FF"/>
<stop offset="1" stop-color="#45B2FF"/>
</linearGradient>
</defs>
</svg>
