<svg width="152" height="92" viewBox="0 0 152 92" fill="none" xmlns="http://www.w3.org/2000/svg">
<path fill-rule="evenodd" clip-rule="evenodd" d="M76 0.5C55.7333 0.5 43.0667 10.6455 38 30.9364C45.6 20.7909 54.4667 16.9864 64.6 19.5227C70.3816 20.9685 74.5138 25.1704 79.0879 29.8175C86.5387 37.39 95.1633 46.1545 114 46.1545C134.267 46.1545 146.933 36.0091 152 15.7182C144.4 25.8636 135.533 29.6682 125.4 27.1318C119.618 25.6861 115.486 21.4842 110.912 16.837C103.461 9.26454 94.8367 0.5 76 0.5ZM38 46.1545C17.7333 46.1545 5.06667 56.3 0 76.5909C7.6 66.4454 16.4667 62.6409 26.6 65.1773C32.3816 66.6258 36.5138 70.8249 41.0879 75.4721C48.5387 83.0445 57.1633 91.8091 76 91.8091C96.2667 91.8091 108.933 81.6636 114 61.3727C106.4 71.5182 97.5333 75.3227 87.4 72.7864C81.6184 71.3406 77.4862 67.1387 72.9121 62.4915C65.4613 54.9191 56.8367 46.1545 38 46.1545Z" fill="#38BDF8"/>
</svg>
